<?xml version="1.0" standalone="no"?>
<!DOCTYPE svg PUBLIC "-//W3C//DTD SVG 20010904//EN"
 "http://www.w3.org/TR/2001/REC-SVG-20010904/DTD/svg10.dtd">
<svg version="1.0" xmlns="http://www.w3.org/2000/svg"
 width="200.000000pt" height="200.000000pt" viewBox="0 0 200.000000 200.000000"
 preserveAspectRatio="xMidYMid meet">

<g transform="translate(0.000000,200.000000) scale(0.100000,-0.100000)"
fill="#000000" stroke="none">
<path d="M656 1613 c14 -31 9 -98 -9 -126 -10 -15 -48 -42 -86 -61 -37 -19
-82 -46 -98 -60 -44 -37 -90 -113 -103 -170 -6 -27 -25 -69 -43 -93 -24 -35
-32 -55 -31 -87 2 -71 48 -142 116 -177 50 -25 53 -33 22 -64 -19 -19 -24 -32
-20 -51 4 -14 0 -37 -9 -54 -23 -45 -19 -58 40 -131 30 -37 65 -84 76 -104 12
-19 25 -35 29 -35 15 0 58 64 67 100 9 33 12 35 54 37 40 1 48 -2 85 -43 23
-24 46 -44 52 -44 10 0 18 27 24 90 2 20 9 25 30 25 26 1 27 -1 22 -36 -5 -29
-2 -41 15 -58 24 -24 76 -28 106 -7 26 17 93 27 101 15 3 -5 7 -27 9 -49 6
-61 29 -95 75 -114 22 -9 51 -16 64 -16 31 0 80 48 92 92 9 29 15 34 51 39 23
3 47 10 55 16 25 21 84 26 109 10 40 -26 96 -31 124 -13 21 14 24 23 23 63 -1
27 1 58 5 69 11 31 -16 54 -63 54 -21 0 -42 -5 -46 -11 -15 -24 -101 105 -110
166 -2 17 -9 59 -15 95 -6 36 -11 84 -12 108 -1 23 -5 42 -10 42 -5 0 -7 14
-5 32 3 17 0 41 -6 52 -16 29 -86 102 -86 90 0 -12 30 -56 48 -70 10 -7 16
-35 18 -84 3 -67 2 -75 -21 -96 -14 -13 -25 -31 -25 -40 0 -13 4 -12 18 6 16
19 22 21 40 11 17 -9 20 -17 15 -42 -5 -26 3 -69 25 -129 3 -8 6 -19 7 -25 0
-5 5 -19 9 -30 19 -48 30 -65 47 -70 24 -8 35 -45 18 -59 -8 -6 -20 -23 -26
-38 -7 -16 -17 -28 -23 -28 -5 0 -10 -6 -10 -13 0 -7 -26 -20 -57 -30 -53 -15
-62 -15 -103 -1 -58 20 -101 47 -120 75 -29 42 -65 69 -92 69 -16 0 -28 5 -28
13 0 19 21 37 42 37 10 0 18 5 18 10 0 22 -41 8 -58 -20 l-19 -30 -22 30 c-18
25 -28 30 -65 30 -53 0 -80 -25 -70 -64 6 -25 5 -26 -45 -26 -48 0 -51 2 -51
25 0 17 9 29 29 39 41 22 105 97 135 161 14 31 26 60 26 65 0 6 4 10 9 10 12
0 92 67 109 92 18 24 7 128 -12 128 -7 0 -23 9 -36 20 -28 24 -30 24 -30 5 0
-9 11 -21 25 -27 16 -7 24 -17 20 -26 -3 -8 -1 -20 4 -26 17 -21 17 -76 0 -76
-6 0 -24 -13 -41 -30 -16 -16 -33 -30 -36 -30 -4 0 -7 46 -8 103 -1 135 -37
254 -97 322 -36 42 -39 48 -27 70 16 29 7 108 -16 143 -23 35 -25 23 -7 -37
14 -49 14 -57 -1 -88 -22 -47 -21 -52 21 -95 35 -35 36 -38 20 -56 -24 -26
-23 -50 1 -28 18 15 20 15 34 -1 27 -31 43 -123 43 -248 0 -147 -16 -202 -82
-275 -58 -64 -107 -90 -173 -90 -27 0 -50 -4 -50 -10 0 -5 14 -10 30 -10 19 0
30 -5 30 -14 0 -17 -22 -26 -60 -26 -46 0 -73 15 -139 75 -47 44 -61 64 -61
85 0 16 -5 41 -11 57 -7 15 -11 41 -10 58 1 23 -1 27 -11 17 -21 -21 -45 -13
-81 27 -33 36 -57 92 -57 132 0 33 34 61 73 61 43 0 47 11 12 34 -20 13 -23
21 -18 47 16 91 84 172 190 225 80 41 114 79 120 136 7 57 -3 96 -23 96 -12 0
-14 -5 -8 -17z m-196 -888 c0 -26 10 -41 50 -79 27 -25 61 -51 75 -58 14 -6
24 -17 21 -24 -3 -7 -10 -31 -16 -52 -5 -22 -19 -50 -29 -63 l-18 -22 -45 69
c-26 38 -58 85 -73 105 -26 36 -26 38 -10 69 9 18 14 41 12 52 -8 28 2 48 19
41 8 -3 14 -19 14 -38z m564 -81 c9 -8 21 -24 26 -35 8 -14 21 -19 50 -19 22
0 40 -4 40 -10 0 -5 7 -10 16 -10 9 0 18 -9 21 -20 3 -11 9 -20 14 -20 5 0 9
-4 9 -10 0 -6 -29 -10 -67 -10 -38 -1 -86 -7 -108 -15 -62 -23 -102 -19 -121
10 -16 24 -15 27 10 63 14 21 26 50 26 65 0 24 4 27 34 27 19 0 42 -7 50 -16z
m-226 -81 c-4 -68 -21 -77 -51 -26 -18 31 -18 33 0 57 10 14 26 26 36 26 16 0
18 -8 15 -57z m868 33 c17 -13 18 -18 7 -46 -9 -24 -9 -36 -1 -50 15 -23 -4
-50 -35 -50 -21 0 -116 41 -117 50 -1 13 97 110 111 110 8 0 24 -6 35 -14z
m-496 -142 c0 -48 14 -71 49 -79 35 -8 67 7 76 35 8 26 25 26 25 -1 0 -30 -53
-79 -85 -79 -39 0 -63 16 -84 58 -31 60 -31 102 -1 102 16 0 20 -7 20 -36z" />
<path d="M700 1626 c0 -17 21 -56 30 -56 19 0 7 55 -12 58 -10 2 -18 1 -18 -2z"/>
<path d="M765 1588 c10 -31 25 -47 25 -26 0 24 -11 48 -22 48 -5 0 -6 -10 -3
-22z" />
<path d="M807 1581 c3 -12 10 -21 15 -21 13 0 6 32 -9 37 -7 3 -9 -3 -6 -16z"/>
<path d="M665 1295 c-14 -13 -25 -32 -25 -42 1 -14 5 -12 21 10 23 30 41 34
59 12 12 -15 30 -12 30 5 0 14 -30 40 -46 40 -8 0 -26 -11 -39 -25z" />
<path d="M1140 1201 c0 -11 14 -29 31 -41 16 -12 28 -28 25 -35 -3 -8 2 -19
10 -26 8 -7 13 -18 10 -25 -3 -7 2 -18 10 -24 8 -7 14 -19 14 -27 0 -11 12
-13 48 -11 l47 3 -2 35 c-5 66 -7 73 -31 97 -12 13 -25 23 -27 23 -11 0 -4
-28 9 -39 8 -6 16 -22 19 -34 2 -12 8 -30 12 -39 6 -15 2 -18 -24 -18 -30 0
-59 29 -43 44 4 4 -1 12 -11 17 -9 6 -17 18 -17 27 0 9 -13 30 -30 45 -16 16
-30 33 -30 38 0 5 -4 9 -10 9 -5 0 -10 -9 -10 -19z" />
<path d="M1090 1177 c0 -7 9 -18 20 -25 23 -14 26 -5 6 21 -16 20 -26 22 -26
4z"/>
<path d="M1320 1174 c0 -12 7 -25 16 -28 24 -9 25 -4 4 24 -19 24 -20 24 -20
4z"/>
<path d="M650 1081 c-7 -13 -7 -22 0 -26 15 -9 30 4 30 26 0 25 -16 25 -30 0z" />
<path d="M890 1071 c-7 -13 -7 -22 0 -26 15 -9 30 4 30 26 0 25 -16 25 -30 0z" />
<path d="M345 1040 c-3 -5 3 -10 14 -10 23 0 28 -19 10 -37 -15 -15 -4 -43 15
-43 9 0 13 6 10 14 -3 8 -1 23 4 33 7 12 7 25 1 36 -11 19 -44 23 -54 7z" />
<path d="M792 987 c3 -6 19 -13 36 -15 24 -2 32 -8 32 -23 0 -15 -7 -19 -35
-19 -19 0 -35 -5 -35 -11 0 -6 17 -9 43 -7 39 3 42 5 45 36 3 34 1 36 -56 46
-24 4 -32 2 -30 -7z" />
<path d="M1195 939 c-9 -17 -14 -36 -12 -42 3 -7 10 0 16 16 14 36 38 45 56
21 17 -24 30 -12 15 15 -17 32 -56 27 -75 -10z" />
<path d="M1202 818 c-7 -7 -12 -16 -12 -20 0 -12 28 -10 36 3 10 17 -10 31
-24 17z" />
<path d="M700 805 c0 -20 32 -35 74 -35 23 0 36 5 36 13 0 9 -11 12 -33 9 -22
-2 -38 2 -46 12 -17 20 -31 21 -31 1z" />
<path d="M1395 800 c-8 -13 4 -32 16 -25 12 8 12 35 0 35 -6 0 -13 -4 -16 -10z"/>
<path d="M1362 723 c-29 -6 -56 -46 -47 -73 8 -26 60 -53 85 -45 88 28 53 135
-38 118z m-6 -60 c-11 -11 -19 6 -11 24 8 17 8 17 12 0 3 -10 2 -21 -1 -24z" />
</g>
</svg>
